<?xml version="1.0" encoding="utf-8"?>
<!-- Generator: Adobe Illustrator 23.0.1, SVG Export Plug-In . SVG Version: 6.00 Build 0)  -->
<svg version="1.1" id="Layer_1" xmlns="http://www.w3.org/2000/svg" xmlns:xlink="http://www.w3.org/1999/xlink" x="0px" y="0px"
	 viewBox="0 0 506.1 105.9" style="enable-background:new 0 0 506.1 105.9;" xml:space="preserve">
<style type="text/css">
	.st0{fill-rule:evenodd;clip-rule:evenodd;fill:#F16623;}
	.st1{fill:#FFFFFF;}
	.st2{fill:#F16623;}
</style>
<path class="st0" d="M13.9,77.9c1.4,4.1,3.4,8,6,11.9c1.1,1.7,2.4,3.3,3.6,4.7L0.2,105.9c0,0-2.5-17.9,11.8-26.8
	C12.5,78.7,13.1,78.3,13.9,77.9z"/>
<rect x="32.6" y="5.6" class="st0" width="28.9" height="91.3"/>
<path class="st1" d="M330.4,21c-9.2,3.2-18.5-6-39.6-8.5c-4.5-0.5-29.1-3.5-43.5,6.5c-10.8,7.5-13.5,20.4-4.7,28.9
	c9.7,9.6,29.8,10.3,35,10.5c20.1,0.7,28.2-6.2,38-2.5c11.3,4.2,10.2,17.1,10.1,18.5c-1.4,13.3-18.4,21.2-22.5,22.9
	c-21.1,9.2-45.2,4.8-52.8,3.5c-12.5-2.2-37.6-9.1-37.2-18.5c0.1-4.4,6-9.6,12.5-10c9.9-0.6,12.2,10.7,30.3,16.5
	c1.8,0.5,19.5,6,35,0.5c10.4-3.8,19-12.2,15.5-16.9c-3-4.2-13.3-2.6-32.6-5.5c-15.5-2.3-34.3-5.1-44.3-13.5
	c-12.3-10.4-10.4-28.9,4.7-40C247,4,265,3.6,289.1,3c9.9-0.2,42.6-1.1,47.3,7.5C338.4,14,335.7,19.2,330.4,21z"/>
<path class="st1" d="M198.9,21c-7.9,3.2-16.1-6-34.3-8.5c-3.9-0.5-25.2-3.5-37.7,6.5c-9.4,7.5-11.6,20.4-4,28.9
	c8.4,9.6,25.9,10.3,30.3,10.5c17.4,0.7,24.4-6.2,33-2.5c9.8,4.2,8.9,17.1,8.8,18.5c-1.3,13.3-15.8,21.2-19.5,22.9
	c-18.4,9.2-39.1,4.8-45.8,3.5c-10.8-2.2-32.6-9.1-32.3-18.5c0.1-4.4,5.3-9.6,10.8-10c8.6-0.6,10.6,10.7,26.3,16.5
	c1.5,0.5,17,6,30.3,0.5c9.1-3.8,16.5-12.2,13.5-16.9c-2.6-4.2-11.6-2.6-28.3-5.5c-13.5-2.3-29.7-5.1-38.4-13.5
	c-10.7-10.4-9.1-28.9,4-40C126.7,4,142.3,3.6,163.3,3c8.6-0.2,37-1.1,41,7.5C205.9,14,203.4,19.2,198.9,21z"/>
<rect x="391" y="3.5" class="st2" width="22.6" height="98.9"/>
<path class="st2" d="M407.1,7.2c3.3-0.8,31.2-7.7,55.8,4.1c20,9.6,24.3,24.7,25.7,29.8c4.4,15.7-1.1,35.5-21,48
	c-26,16.4-64.5,12.5-65.3,9.9c-0.6-2.2,27.7-2.7,50.1-19.1c4.3-3.2,25.9-18.9,21-38.8c-0.5-1.9-4.5-18-21-23.2
	c-16.9-5.3-35.2,4.5-43.1-1.7C406.2,13.8,406.4,9.9,407.1,7.2z"/>
<path class="st0" d="M76.5,24.8c-0.3-4.2-1.1-8.4-2.6-12.7c-0.6-1.9-1.5-3.6-2.3-5.3l25.9-6.6c0,0-2.4,17.9-18.7,23.9
	C78,24.1,77.4,24.4,76.5,24.8z"/>
</svg>
