<?xml version="1.0" encoding="utf-8"?>
<!-- Generator: Adobe Illustrator 23.0.1, SVG Export Plug-In . SVG Version: 6.00 Build 0)  -->
<svg version="1.1" id="Layer_1" xmlns="http://www.w3.org/2000/svg" xmlns:xlink="http://www.w3.org/1999/xlink" x="0px" y="0px"
	 viewBox="0 0 506.1 105.9" style="enable-background:new 0 0 506.1 105.9;" xml:space="preserve">
<style type="text/css">
	.st0{fill-rule:evenodd;clip-rule:evenodd;fill:#F16623;}
	.st1{fill-rule:evenodd;clip-rule:evenodd;fill:#24292D;}
	.st2{fill:#24292D;}
	.st3{fill:#F16623;}
</style>
<g>
	<path class="st0" d="M14.3,77.9c1.4,4.1,3.5,8,6.2,11.9c1.2,1.7,2.5,3.3,3.8,4.7L0.2,105.9c0,0-2.6-17.9,12.2-26.8
		C12.9,78.7,13.6,78.3,14.3,77.9z"/>
	<rect x="33.7" y="5.6" class="st1" width="29.9" height="91.3"/>
	<path class="st2" d="M346.1,18.1c-9.5,3.2-19.1-6-40.9-8.5c-4.7-0.5-30-3.5-45,6.5c-11.2,7.5-13.9,20.4-4.8,28.9
		c10,9.6,30.8,10.3,36.1,10.5c20.8,0.7,29.1-6.2,39.2-2.5c11.7,4.2,10.5,17.1,10.4,18.5c-1.4,13.3-19,21.2-23.3,22.9
		c-21.8,9.2-46.6,4.8-54.6,3.5c-12.9-2.2-38.8-9.1-38.5-18.5c0.1-4.4,6.2-9.6,12.9-10c10.3-0.6,12.6,10.7,31.3,16.5
		c1.8,0.5,20.1,6,36.1,0.5c10.8-3.8,19.6-12.2,16-16.9c-3.1-4.2-13.8-2.6-33.6-5.5c-16-2.3-35.5-5.1-45.7-13.5
		c-12.7-10.4-10.8-28.9,4.8-40c13.4-9.5,32-9.9,56.9-10.5c10.3-0.2,44-1.1,48.8,7.5C354.5,11.2,351.6,16.3,346.1,18.1z"/>
	<path class="st2" d="M205.6,18.1c-8.2,3.2-16.6-6-35.5-8.5c-4-0.5-26-3.5-39,6.5c-9.7,7.5-12,20.4-4.2,28.9
		c8.7,9.6,26.8,10.3,31.3,10.5c17.9,0.7,25.2-6.2,34-2.5c10.1,4.2,9.2,17.1,9.1,18.5c-1.3,13.3-16.4,21.2-20.1,22.9
		c-19,9.2-40.4,4.8-47.3,3.5c-11.2-2.2-33.6-9.1-33.4-18.5c0.1-4.4,5.5-9.6,11.2-10c8.8-0.6,10.9,10.7,27.2,16.5
		c1.6,0.5,17.5,6,31.3,0.5c9.4-3.8,17-12.2,13.9-16.9c-2.7-4.2-12-2.6-29.2-5.5c-13.9-2.3-30.7-5.1-39.6-13.5
		c-11-10.4-9.4-28.9,4.2-40c11.6-9.5,27.7-9.9,49.4-10.5c8.8-0.2,38.2-1.1,42.4,7.5C212.8,11.2,210.2,16.3,205.6,18.1z"/>
	<rect x="404" y="0" class="st3" width="23.4" height="98.9"/>
	<path class="st3" d="M420.5,2.8c3.4-0.8,32.2-7.7,57.7,4.1c20.7,9.6,25.1,24.7,26.5,29.8c4.5,15.7-1.2,35.5-21.7,48
		c-26.9,16.4-66.6,12.5-67.4,9.9c-0.6-2.2,28.6-2.7,51.7-19.1c4.4-3.2,26.8-18.9,21.7-38.8c-0.5-1.9-4.7-18-21.7-23.2
		c-17.4-5.3-36.4,4.5-44.6-1.7C419.5,9.3,419.8,5.4,420.5,2.8z"/>
	<path class="st0" d="M79,24.8c-0.3-4.2-1.2-8.4-2.7-12.7c-0.6-1.9-1.6-3.6-2.3-5.3l26.8-6.6c0,0-2.5,17.9-19.4,23.9
		C80.6,24.1,79.9,24.4,79,24.8z"/>
</g>
</svg>
